<svg width="12" height="16" viewBox="0 0 12 16" fill="none" xmlns="http://www.w3.org/2000/svg">
<path d="M6.22656 0.580078C3.20898 0.580078 0.25 2.57227 0.25 5.82422C0.25 7.875 1.39258 9.04688 2.0957 9.04688C2.38867 9.04688 2.56445 8.25586 2.56445 8.02148C2.56445 7.75781 1.86133 7.17188 1.86133 6.0293C1.86133 3.68555 3.64844 2.01562 5.96289 2.01562C7.98438 2.01562 9.44922 3.1582 9.44922 5.23828C9.44922 6.79102 8.83398 9.69141 6.8125 9.69141C6.08008 9.69141 5.43555 9.16406 5.43555 8.43164C5.43555 7.31836 6.22656 6.23438 6.22656 5.0918C6.22656 3.1582 3.47266 3.50977 3.47266 5.85352C3.47266 6.35156 3.53125 6.87891 3.76562 7.34766C3.35547 9.07617 2.53516 11.6836 2.53516 13.4707C2.53516 14.0273 2.59375 14.5547 2.65234 15.1113C2.74023 15.2285 2.71094 15.2285 2.85742 15.1699C4.32227 13.1484 4.29297 12.7383 4.9375 10.1016C5.31836 10.7754 6.22656 11.1562 6.98828 11.1562C10.0938 11.1562 11.5 8.10938 11.5 5.38477C11.5 2.48438 8.98047 0.580078 6.22656 0.580078Z" fill="white"/>
</svg>
