<svg width="16" height="13" viewBox="0 0 16 13" fill="none" xmlns="http://www.w3.org/2000/svg">
<path d="M14.1211 3.82812C14.707 3.38867 15.2344 2.86133 15.6445 2.24609C15.1172 2.48047 14.502 2.65625 13.8867 2.71484C14.5312 2.33398 15 1.74805 15.2344 1.01562C14.6484 1.36719 13.9746 1.63086 13.3008 1.77734C12.7148 1.16211 11.9238 0.810547 11.0449 0.810547C9.3457 0.810547 7.96875 2.1875 7.96875 3.88672C7.96875 4.12109 7.99805 4.35547 8.05664 4.58984C5.50781 4.44336 3.22266 3.21289 1.69922 1.36719C1.43555 1.80664 1.28906 2.33398 1.28906 2.91992C1.28906 3.97461 1.81641 4.91211 2.66602 5.46875C2.16797 5.43945 1.66992 5.32227 1.25977 5.08789V5.11719C1.25977 6.61133 2.31445 7.8418 3.7207 8.13477C3.48633 8.19336 3.19336 8.25195 2.92969 8.25195C2.72461 8.25195 2.54883 8.22266 2.34375 8.19336C2.72461 9.42383 3.86719 10.3027 5.21484 10.332C4.16016 11.1523 2.8418 11.6504 1.40625 11.6504C1.14258 11.6504 0.908203 11.6211 0.673828 11.5918C2.02148 12.4707 3.63281 12.9688 5.39062 12.9688C11.0449 12.9688 14.1211 8.31055 14.1211 4.23828C14.1211 4.0918 14.1211 3.97461 14.1211 3.82812Z" fill="white"/>
</svg>
