<svg width="48" height="48" viewBox="0 0 48 48" fill="none" xmlns="http://www.w3.org/2000/svg">
<mask id="mask0_359_541" style="mask-type:alpha" maskUnits="userSpaceOnUse" x="0" y="0" width="48" height="48">
<rect width="48" height="48" fill="#D9D9D9"/>
</mask>
<g mask="url(#mask0_359_541)">
<path d="M24.0008 39.9996C23.4341 39.9996 22.9591 39.8079 22.5758 39.4246C22.1924 39.0413 22.0008 38.5663 22.0008 37.9996V15.6496L12.2508 25.3996C11.8508 25.7996 11.3758 25.9996 10.8258 25.9996C10.2758 25.9996 9.80078 25.7996 9.40078 25.3996C9.00078 24.9996 8.80078 24.5329 8.80078 23.9996C8.80078 23.4663 9.00078 22.9996 9.40078 22.5996L22.6008 9.39961C22.8008 9.19961 23.0174 9.05794 23.2508 8.97461C23.4841 8.89128 23.7341 8.84961 24.0008 8.84961C24.2674 8.84961 24.5258 8.89128 24.7758 8.97461C25.0258 9.05794 25.2341 9.19961 25.4008 9.39961L38.6008 22.5996C39.0008 22.9996 39.2008 23.4663 39.2008 23.9996C39.2008 24.5329 39.0008 24.9996 38.6008 25.3996C38.2008 25.7996 37.7258 25.9996 37.1758 25.9996C36.6258 25.9996 36.1508 25.7996 35.7508 25.3996L26.0008 15.6496V37.9996C26.0008 38.5663 25.8091 39.0413 25.4258 39.4246C25.0424 39.8079 24.5674 39.9996 24.0008 39.9996Z" fill="#1C1B1F"/>
</g>
</svg>
